<?xml version="1.0" encoding="UTF-8"?>
<svg version="1.1" viewBox="0 0 400 354" xmlns="http://www.w3.org/2000/svg">
<path d="m169.72 145.95c-1.0154-1.3541-3.3214-5.4866-5.548-9.9418-6.9292-13.865-11.116-28.607-12.438-43.793-0.35987-4.1343-0.3601-13.816-4.2e-4 -17.688 2.5143-27.067 14.58-47.549 32.709-55.528 12.151-5.3477 26.709-4.4785 41.406 2.4722 14.269 6.7479 23.154 17.859 25.822 32.292 0.53801 2.91 0.72918 10.077 0.35999 13.497-2.1946 20.328-15.666 41.307-36.476 56.803-8.9235 6.6448-17.608 11.488-29.286 16.332-2.952 1.2246-7.2394 3.1537-9.5275 4.2869-3.4166 1.6921-4.3628 2.0604-5.2939 2.0604-0.99446 0-1.2067-0.0974-1.7282-0.7929z" fill="#2e7d32" fill-opacity=".99608" stroke-width=".11906"/>
<path d="m296.64 187.84c-2.077-0.17836-5.31-0.64789-7.5906-1.1024-15.536-3.0961-28.936-10.965-51.236-30.089-13.655-11.71-17.665-15.362-19.183-17.474-3.1892-4.4354-1.4847-7.4883 8.6274-15.452 4.9898-3.9297 20.432-15.408 23.149-17.208 24.092-15.954 49.036-21.625 68.056-15.472 9.2903 3.0052 15.981 8.0398 22.07 16.607 5.753 8.0949 9.2861 17.018 10.383 26.225 0.28751 2.4122 0.28842 8.6171 2e-3 10.868-1.8284 14.351-9.0964 26.433-20.725 34.453-6.8542 4.727-14.756 7.5769-23.576 8.5031-2.2048 0.23154-7.9739 0.31325-9.9762 0.1413z" fill="#63b967" fill-opacity=".98039" stroke-width=".084186"/>
<path d="m259.95 309.32c-11.324-1.3128-21.312-5.2976-28.682-11.444-15.482-12.911-19.943-35.967-12.551-64.883 2.4887-9.7359 5.2797-17.365 11.112-30.374 5.2916-11.804 7.8247-18.365 9.4697-24.529 1.1981-4.4893 1.3685-4.9433 2.171-5.7846 0.87773-0.92005 1.7606-0.86434 3.9689 0.25046 4.3643 2.2032 19.042 11.826 26.322 17.256 19.615 14.632 30.648 27.791 38.295 45.673 3.4019 7.9545 4.721 14.151 4.7148 22.149-6e-3 8.2051-1.6899 15.356-5.3994 22.933-7.8017 15.937-22.367 26.56-39.29 28.654-1.8995 0.23515-8.4051 0.29806-10.131 0.098z" fill="#78c17a" fill-opacity=".85882" stroke-width=".11906"/>
<path d="m134.25 309.36c-4.5509-0.26025-8.865-1.0209-13.433-2.3685-4.637-1.368-8.4849-3.1426-12.348-5.6946-4.9329-3.2588-8.9817-7.3336-12.343-12.422-4.5688-6.917-7.2611-14.899-8.0731-23.936-0.17019-1.8941-0.14324-7.3199 0.04605-9.2726 1.5332-15.816 9.089-29.191 21.318-37.738 8.7749-6.1326 19.364-9.2303 34.546-10.106 2.3581-0.13597 10.104-0.13504 12.723 2e-3 8.0482 0.41977 14.538 1.1497 23.505 2.6439 6.4116 1.0684 10.337 1.6049 15.742 2.1516 4.7472 0.48022 7.5582 0.65081 10.77 0.65364 2.786 2e-3 5.107 0.11515 6.031 0.29285 1.3816 0.26569 2.2049 0.85095 2.5373 1.8037 0.21121 0.60538 0.20898 2.2113-5e-3 3.3787-0.47498 2.595-1.3454 5.5397-4.5001 15.224-2.8915 8.8767-3.9127 11.769-5.7562 16.302-7.8503 19.306-18.234 34.463-30.728 44.854-3.7023 3.0791-8.511 6.2531-12.528 8.2689-6.4994 3.2615-13.325 5.2311-20.206 5.8307-1.8792 0.16375-5.5705 0.23016-7.2989 0.13131z" fill="#1b5e20" stroke-width=".042093"/>
<path d="m120.52 199.28c-19.499-2.3528-36.757-10.147-49.331-22.281-21.199-20.456-24.643-46.628-8.8646-67.362 6.9541-9.1381 17.65-16.809 28.431-20.39 3.8575-1.2812 4.6934-1.3776 11.955-1.3776 7.2303 0 8.1134 0.10067 11.955 1.3626 8.4745 2.7843 15.227 7.2389 22.571 14.891 12.576 13.102 21.845 33.65 25.665 56.893 1.3175 8.0159 1.402 8.7354 2.51 21.355 1.2334 14.049 1.2492 16.23 0.12135 16.749-1.2052 0.5545-40.583 0.6945-45.012 0.16004z" fill="#43a047" stroke-width=".23811"/>
</svg>
